<svg xmlns="http://www.w3.org/2000/svg" viewBox="0 0 135.13 49.2" fill="#ee2348" height="60px" width="60px" style="rotate: 0deg;"><title>STID_logo</title><path d="M8.07 47.29a19.6 19.6 0 0 1-7.72-5.16 1.47 1.47 0 0 1-.35-1 1.31 1.31 0 0 1 .28-.88l3.44-4.42a1.17 1.17 0 0 1 .91-.54 1.25 1.25 0 0 1 .91.41 24.71 24.71 0 0 0 6.18 4 16.85 16.85 0 0 0 6.88 1.39 9 9 0 0 0 5.76-1.63 5.1 5.1 0 0 0 2-4.14 5 5 0 0 0-.95-3.16 7.24 7.24 0 0 0-2.94-2.14 39 39 0 0 0-5.79-1.84 44.31 44.31 0 0 1-7.83-2.75 13.62 13.62 0 0 1-5.2-4.28 11.81 11.81 0 0 1-2-7.1 12.32 12.32 0 0 1 2.28-7.34 15 15 0 0 1 6.18-5 20.55 20.55 0 0 1 8.6-1.77q8.78 0 14.32 5a1.3 1.3 0 0 1 .49.89 1.73 1.73 0 0 1-.35.88l-3.23 4.48a1 1 0 0 1-.84.55 1.77 1.77 0 0 1-1-.41A13.45 13.45 0 0 0 18.76 8a9.25 9.25 0 0 0-5.79 1.6 4.89 4.89 0 0 0-2.07 4 4.3 4.3 0 0 0 1.12 3.09 7.92 7.92 0 0 0 2.95 1.9 43 43 0 0 0 5.05 1.53 50 50 0 0 1 8.5 3 12.84 12.84 0 0 1 5.12 4.32 12.59 12.59 0 0 1 1.9 7.3 13.92 13.92 0 0 1-1.93 7.2 13.61 13.61 0 0 1-5.76 5.2 20.26 20.26 0 0 1-9.23 1.94 28.71 28.71 0 0 1-10.55-1.79Z"></path><path d="M50.75 47.99V8.29H39.37a1.33 1.33 0 0 1-1-.35 1.27 1.27 0 0 1-.35-.92V1.27a1.27 1.27 0 0 1 .35-.92 1.33 1.33 0 0 1 1-.35H71.1a1.36 1.36 0 0 1 1 .35 1.27 1.27 0 0 1 .35.92v5.72a1.27 1.27 0 0 1-.35.92 1.36 1.36 0 0 1-1 .35H59.73v39.73c0 .85-.42 1.27-1.26 1.19h-6.46c-.84.09-1.26-.33-1.26-1.19Z"></path><path d="M77.22 48.82a1.21 1.21 0 0 1-.35-.91V3.99a1.43 1.43 0 0 1 1.05-1.47S82.78.64 84.44.13A5.73 5.73 0 0 1 85-.01c.6-.07.92.38.92 1.13v46.77c0 .84-.42 1.19-1.26 1.26H78.2a1.71 1.71 0 0 1-.98-.33Z"></path><path d="M95.26 48.85a1.23 1.23 0 0 1-.35-.92V1.27a1.23 1.23 0 0 1 .35-.92 1.33 1.33 0 0 1 1-.35h16.15a23.21 23.21 0 0 1 11.67 2.99 20.84 20.84 0 0 1 8.1 8.55 30.69 30.69 0 0 1 0 26.26 20.74 20.74 0 0 1-8.1 8.49 23.21 23.21 0 0 1-11.69 2.95H96.24a1.33 1.33 0 0 1-.98-.39Zm16.5-7.94A13.57 13.57 0 0 0 122 36.84q3.94-4.07 3.94-12.21T122 12.41a13.6 13.6 0 0 0-10.24-4.07h-7.8v32.57Z"></path></svg>